<svg width="826.75" height="620" version="1.1" baseProfile="full" viewbox="0 0 826.75 620" xmlns="http://www.w3.org/2000/svg" xmlns:xlink="http://www.w3.org/1999/xlink" xmlns:ev="http://www.w3.org/2001/xml-events" style="font-weight:bold; font-size:12pt; font-family:'Calibri', Helvetica, sans-serif;stroke-width:3;stroke-linejoin:round;stroke-linecap:round"><text x="632" y="75" style="font-weight:normal;">input</text>
<path d="M680.3 46.9 L748.8 74.5 L748.8 115 L748.8 115 L748.8 155.5 L748.8 155.5 L748.8 175.5 L748.8 175.5" style="stroke:#33322E;fill:none;stroke-dasharray:none;"></path>
<path d="M746.1 168.8 L748.8 172.2 L751.4 168.8 L748.8 175.5 Z" style="stroke:#33322E;fill:#33322E;stroke-dasharray:none;"></path>
<path d="M616.3 43.6 L513.3 74.5 L513.3 94.5 L513.3 94.5" style="stroke:#33322E;fill:none;stroke-dasharray:none;"></path>
<path d="M510.6 87.8 L513.3 91.2 L515.9 87.8 L513.3 94.5 Z" style="stroke:#33322E;fill:#33322E;stroke-dasharray:none;"></path>
<path d="M748.8 216.5 L748.8 236.5 L748.8 330.5 L748.8 330.5" style="stroke:#33322E;fill:none;stroke-dasharray:none;"></path>
<path d="M746.1 323.8 L748.8 327.2 L751.4 323.8 L748.8 330.5 Z" style="stroke:#33322E;fill:#33322E;stroke-dasharray:none;"></path>
<path d="M513.3 135.5 L513.3 155.5 L513.3 175.5 L513.3 175.5" style="stroke:#33322E;fill:none;stroke-dasharray:none;"></path>
<path d="M510.6 168.8 L513.3 172.2 L515.9 168.8 L513.3 175.5 Z" style="stroke:#33322E;fill:#33322E;stroke-dasharray:none;"></path>
<path d="M492.9 216.5 L473 236.5 L473 330.5 L473 330.5" style="stroke:#33322E;fill:none;stroke-dasharray:none;"></path>
<path d="M490.1 223.1 L490.5 218.9 L486.3 219.3 L492.9 216.5 Z" style="stroke:#33322E;fill:#33322E;stroke-dasharray:none;"></path>
<path d="M555.1 216.5 L596 236.5 L596 330.5 L596 330.5" style="stroke:#33322E;fill:none;stroke-dasharray:none;"></path>
<path d="M562.3 217 L558.1 218 L560 221.8 L555.1 216.5 Z" style="stroke:#33322E;fill:#33322E;stroke-dasharray:none;"></path>
<path d="M466.8 201.7 L182.5 236.5 L182.5 256.5 L182.5 256.5" style="stroke:#33322E;fill:none;stroke-dasharray:none;"></path>
<path d="M179.8 249.8 L182.5 253.2 L185.2 249.8 L182.5 256.5 Z" style="stroke:#33322E;fill:#33322E;stroke-dasharray:none;"></path>
<path d="M559.8 207.6 L675.3 236.5 L735.6 330.5 L735.6 330.5" style="stroke:#33322E;fill:none;stroke-dasharray:none;"></path>
<path d="M729.7 326.3 L733.8 327.7 L734.2 323.4 L735.6 330.5 Z" style="stroke:#33322E;fill:#33322E;stroke-dasharray:none;"></path>
<path d="M466.8 211.5 L391.5 236.5 L391.5 351 L391.5 351 L391.5 465.5 L391.5 465.5 L371.7 485.5 L371.7 485.5" style="stroke:#33322E;fill:none;stroke-dasharray:none;"></path>
<path d="M374.5 478.9 L374.1 483.1 L378.3 482.6 L371.7 485.5 Z" style="stroke:#33322E;fill:#33322E;stroke-dasharray:none;"></path>
<path d="M215.7 445.5 L222.8 465.5 L314.5 494.4 L314.5 494.4" style="stroke:#33322E;fill:none;stroke-dasharray:none;"></path>
<path d="M307.3 494.9 L311.3 493.4 L308.9 489.8 L314.5 494.4 Z" style="stroke:#33322E;fill:#33322E;stroke-dasharray:none;"></path>
<path d="M351.5 526.5 L351.5 546.5 L351.5 566.5 L351.5 566.5" style="stroke:#33322E;fill:none;stroke-dasharray:6 6;"></path>
<path d="M348.8 559.8 L351.5 563.2 L354.2 559.8 L351.5 566.5 Z" style="stroke:#33322E;fill:#33322E;stroke-dasharray:none;"></path>
<path d="M748.8 371.5 L748.8 465.5 L748.8 485.5 L748.8 485.5" style="stroke:#33322E;fill:none;stroke-dasharray:6 6;"></path>
<path d="M746.1 478.8 L748.8 482.2 L751.4 478.8 L748.8 485.5 Z" style="stroke:#33322E;fill:#33322E;stroke-dasharray:none;"></path>
<path d="M351.5 403.2 L553 465.5 L716.8 499.4 L716.8 499.4" style="stroke:#33322E;fill:none;stroke-dasharray:6 6;"></path>
<path d="M709.7 500.6 L713.5 498.7 L710.8 495.4 L716.8 499.4 Z" style="stroke:#33322E;fill:#33322E;stroke-dasharray:none;"></path>
<text x="162.2" y="465.5" style="font-weight:normal;">output</text>
<path d="M154.2 445.5 L148.3 465.5 L148.3 485.5 L148.3 485.5" style="stroke:#33322E;fill:none;stroke-dasharray:6 6;"></path>
<path d="M145.6 478.8 L148.3 482.2 L150.9 478.8 L148.3 485.5 Z" style="stroke:#33322E;fill:#33322E;stroke-dasharray:none;"></path>
<rect x="18.5" y="261.5" height="179" width="328" style="stroke:#33322E;fill:#eee8d5;stroke-dasharray:none;"></rect>
<text x="26.5" y="283" style="font-weight:normal;">Overseer</text>
<path d="M18.5 292.5 L102.5 292.5 L118 277 L118 261.5" style="stroke:#33322E;fill:none;stroke-dasharray:none;"></path>
<path d="M131.5 344.1 L68.5 366.5 L68.5 386.5 L68.5 386.5" style="stroke:#33322E;fill:none;stroke-dasharray:6 6;"></path>
<path d="M65.8 379.8 L68.5 383.2 L71.2 379.8 L68.5 386.5 Z" style="stroke:#33322E;fill:#33322E;stroke-dasharray:none;"></path>
<path d="M182.5 346.5 L182.5 366.5 L182.5 386.5 L182.5 386.5" style="stroke:#33322E;fill:none;stroke-dasharray:6 6;"></path>
<path d="M179.8 379.8 L182.5 383.2 L185.2 379.8 L182.5 386.5 Z" style="stroke:#33322E;fill:#33322E;stroke-dasharray:none;"></path>
<path d="M233.5 344.1 L296.5 366.5 L296.5 386.5 L296.5 386.5" style="stroke:#33322E;fill:none;stroke-dasharray:6 6;"></path>
<path d="M293.8 379.8 L296.5 383.2 L299.2 379.8 L296.5 386.5 Z" style="stroke:#33322E;fill:#33322E;stroke-dasharray:none;"></path>
<rect x="136.5" y="310.5" height="31" width="92" style="stroke:#33322E;fill:#fdf6e3;stroke-dasharray:none;"></rect>
<text x="182.5" y="332" style="text-anchor:middle;">Overseer</text>
<rect x="36.5" y="391.5" height="31" width="64" style="stroke:#33322E;fill:#fdf6e3;stroke-dasharray:none;"></rect>
<text x="68.5" y="413" style="text-anchor:middle;">cmd#1</text>
<rect x="150.5" y="391.5" height="31" width="64" style="stroke:#33322E;fill:#fdf6e3;stroke-dasharray:none;"></rect>
<text x="182.5" y="413" style="text-anchor:middle;">cmd#2</text>
<rect x="264.5" y="391.5" height="31" width="64" style="stroke:#33322E;fill:#fdf6e3;stroke-dasharray:none;"></rect>
<text x="296.5" y="413" style="text-anchor:middle;">cmd#3</text>
<rect x="121.5" y="490.5" height="31" width="54" style="stroke:#33322E;fill:#eee8d5;stroke-dasharray:none;"></rect>
<text x="148.5" y="512" style="text-anchor:middle;">data</text>
<path d="M721.5 180.5 L767.5 180.5 L775.5 196 L767.5 211.5 L721.5 211.5 Z" style="stroke:#33322E;fill:#eee8d5;stroke-dasharray:none;"></path>
<text x="729.5" y="202" style="font-weight:normal;">HTTP</text>
<circle r="4" cx="648.3" cy="16.5" style="stroke:#33f;fill:#eee8d5;stroke-dasharray:none;"></circle>
<path d="M648.3 20.5 L648.3 28.5" style="stroke:#33f;fill:none;stroke-dasharray:none;"></path>
<path d="M644.3 24.5 L652.3 24.5" style="stroke:#33f;fill:none;stroke-dasharray:none;"></path>
<path d="M644.3 32.5 L648.3 28.5 L652.3 32.5" style="stroke:#33f;fill:none;stroke-dasharray:none;"></path>
<text x="648.5" y="46" style="font-weight:normal;text-anchor:middle;">User</text>
<path d="M490.5 99.5 L527.5 99.5 L535.5 115 L527.5 130.5 L490.5 130.5 Z" style="stroke:#33322E;fill:#eee8d5;stroke-dasharray:none;"></path>
<text x="498.5" y="121" style="font-weight:normal;">CLI</text>
<rect x="688.5" y="335.5" height="31" width="121" style="stroke:#33322E;fill:#eee8d5;stroke-dasharray:none;"></rect>
<text x="749" y="357" style="text-anchor:middle;">HTTP server</text>
<rect x="471.5" y="180.5" rx="15.5" ry="15.5" height="31" width="83" style="stroke:#33322E;fill:#c0ffee;stroke-dasharray:none;"></rect>
<text x="513" y="202" style="font-weight:normal;text-anchor:middle;">Command</text>
<rect x="436.5" y="335.5" height="31" width="73" style="stroke:#33322E;fill:#eee8d5;stroke-dasharray:none;"></rect>
<text x="473" y="357" style="text-anchor:middle;">Parser</text>
<rect x="559.5" y="335.5" height="31" width="73" style="stroke:#33322E;fill:#eee8d5;stroke-dasharray:none;"></rect>
<text x="596" y="357" style="text-anchor:middle;">Config</text>
<rect x="319.5" y="490.5" height="31" width="64" style="stroke:#33322E;fill:#eee8d5;stroke-dasharray:none;"></rect>
<text x="351.5" y="512" style="text-anchor:middle;">State</text>
<rect x="315.5" y="571.5" height="31" width="73" style="stroke:#33322E;fill:#eee8d5;stroke-dasharray:none;"></rect>
<text x="352" y="593" style="text-anchor:middle;">events</text>
<rect x="721.5" y="490.5" height="31" width="54" style="stroke:#33322E;fill:#eee8d5;stroke-dasharray:none;"></rect>
<text x="748.5" y="512" style="text-anchor:middle;">logs</text></svg>
